<mxfile host="app.diagrams.net" modified="2024-06-07T21:09:52.355Z" agent="Mozilla/5.0 (Windows NT 10.0; Win64; x64) AppleWebKit/537.36 (KHTML, like Gecko) Chrome/125.0.0.0 Safari/537.36" version="24.5.2" etag="lfiljcfXJ_H-tJIiovJa" type="device">
  <diagram id="hug5BFpyhWWsbY6dUL4G" name="Страница — 1">
    <mxGraphModel dx="521" dy="530" grid="1" gridSize="10" guides="1" tooltips="1" connect="1" arrows="1" fold="1" page="1" pageScale="1" pageWidth="827" pageHeight="1169" math="0" shadow="0">
      <root>
        <mxCell id="0" />
        <mxCell id="1" parent="0" />
        <mxCell id="MFa4Vtsa9XFFA_-oqgBq-5" value="ИС&lt;div&gt;ДБ&lt;/div&gt;" style="rounded=0;whiteSpace=wrap;html=1;" vertex="1" parent="1">
          <mxGeometry x="40" y="80" width="120" height="60" as="geometry" />
        </mxCell>
        <mxCell id="MFa4Vtsa9XFFA_-oqgBq-14" style="edgeStyle=orthogonalEdgeStyle;rounded=0;orthogonalLoop=1;jettySize=auto;html=1;exitX=1;exitY=0.5;exitDx=0;exitDy=0;entryX=0;entryY=0.5;entryDx=0;entryDy=0;" edge="1" parent="1" source="MFa4Vtsa9XFFA_-oqgBq-6" target="MFa4Vtsa9XFFA_-oqgBq-9">
          <mxGeometry relative="1" as="geometry" />
        </mxCell>
        <mxCell id="MFa4Vtsa9XFFA_-oqgBq-6" value="ПП&lt;div&gt;П0,П1,ПП2,ПП3,ПП6&lt;/div&gt;" style="rounded=0;whiteSpace=wrap;html=1;" vertex="1" parent="1">
          <mxGeometry x="40" y="140" width="120" height="60" as="geometry" />
        </mxCell>
        <mxCell id="MFa4Vtsa9XFFA_-oqgBq-7" value="ТС&lt;div&gt;PC23(CC1),PC1-9,PC16-19&lt;/div&gt;" style="rounded=0;whiteSpace=wrap;html=1;" vertex="1" parent="1">
          <mxGeometry x="40" y="200" width="120" height="60" as="geometry" />
        </mxCell>
        <mxCell id="MFa4Vtsa9XFFA_-oqgBq-8" value="ИС&lt;div&gt;ФТД&lt;/div&gt;" style="rounded=0;whiteSpace=wrap;html=1;" vertex="1" parent="1">
          <mxGeometry x="240" y="80" width="120" height="60" as="geometry" />
        </mxCell>
        <mxCell id="MFa4Vtsa9XFFA_-oqgBq-15" style="edgeStyle=orthogonalEdgeStyle;rounded=0;orthogonalLoop=1;jettySize=auto;html=1;exitX=1;exitY=0.5;exitDx=0;exitDy=0;entryX=0;entryY=0.5;entryDx=0;entryDy=0;" edge="1" parent="1" source="MFa4Vtsa9XFFA_-oqgBq-9" target="MFa4Vtsa9XFFA_-oqgBq-12">
          <mxGeometry relative="1" as="geometry" />
        </mxCell>
        <mxCell id="MFa4Vtsa9XFFA_-oqgBq-9" value="ПП&lt;div&gt;-&lt;/div&gt;" style="rounded=0;whiteSpace=wrap;html=1;" vertex="1" parent="1">
          <mxGeometry x="240" y="140" width="120" height="60" as="geometry" />
        </mxCell>
        <mxCell id="MFa4Vtsa9XFFA_-oqgBq-10" value="ТС&lt;div&gt;PC 20-22&lt;/div&gt;" style="rounded=0;whiteSpace=wrap;html=1;" vertex="1" parent="1">
          <mxGeometry x="240" y="200" width="120" height="60" as="geometry" />
        </mxCell>
        <mxCell id="MFa4Vtsa9XFFA_-oqgBq-11" value="ИС&lt;div&gt;ФАД&lt;/div&gt;" style="rounded=0;whiteSpace=wrap;html=1;" vertex="1" parent="1">
          <mxGeometry x="440" y="80" width="120" height="60" as="geometry" />
        </mxCell>
        <mxCell id="MFa4Vtsa9XFFA_-oqgBq-12" value="ПП&lt;div&gt;ПП4, ПП5&lt;/div&gt;" style="rounded=0;whiteSpace=wrap;html=1;" vertex="1" parent="1">
          <mxGeometry x="440" y="140" width="120" height="60" as="geometry" />
        </mxCell>
        <mxCell id="MFa4Vtsa9XFFA_-oqgBq-13" value="" style="rounded=0;whiteSpace=wrap;html=1;" vertex="1" parent="1">
          <mxGeometry x="440" y="200" width="120" height="60" as="geometry" />
        </mxCell>
        <mxCell id="MFa4Vtsa9XFFA_-oqgBq-16" value="Очередь 1&amp;nbsp;" style="rounded=0;whiteSpace=wrap;html=1;" vertex="1" parent="1">
          <mxGeometry x="40" y="20" width="120" height="60" as="geometry" />
        </mxCell>
        <mxCell id="MFa4Vtsa9XFFA_-oqgBq-17" value="Очередь 2" style="rounded=0;whiteSpace=wrap;html=1;" vertex="1" parent="1">
          <mxGeometry x="240" y="20" width="120" height="60" as="geometry" />
        </mxCell>
        <mxCell id="MFa4Vtsa9XFFA_-oqgBq-18" value="Очередь 3" style="rounded=0;whiteSpace=wrap;html=1;" vertex="1" parent="1">
          <mxGeometry x="440" y="20" width="120" height="60" as="geometry" />
        </mxCell>
      </root>
    </mxGraphModel>
  </diagram>
</mxfile>
